PathFileType	4	(X/Y/Z)	 s02c0202.trc
DataRate	CameraRate	NumFrames	NumMarkers	Units	OrigDataRate	OrigDataStartFrame	OrigNumFrames
200	200	4	50	mm	200	251	2000
Frame#	Time	racr			lacr			c7			jug			rlel			rdr			llel			ldr			s2			lic			ric			lasi			rasi			rpsi			lpsi			rgt			lgt			rth1			rth2			rth3			rth4			rlfc			rmfc			rsh1			rsh2			rsh3			rsh4			rlmal			rmmal			rtoe			rmt5			rmt1			lth1			lth2			lth4			lth3			llfc			lmfc			lsh1			lsh2			lsh3			lsh4			llmal			lmmal			lcal			ltoe			lmt5			SBIKE			LBIKE			RBIKE			
		X1	Y1	Z1	X2	Y2	Z2	X3	Y3	Z3	X4	Y4	Z4	X5	Y5	Z5	X6	Y6	Z6	X7	Y7	Z7	X8	Y8	Z8	X9	Y9	Z9	X10	Y10	Z10	X11	Y11	Z11	X12	Y12	Z12	X13	Y13	Z13	X14	Y14	Z14	X15	Y15	Z15	X16	Y16	Z16	X17	Y17	Z17	X18	Y18	Z18	X19	Y19	Z19	X20	Y20	Z20	X21	Y21	Z21	X22	Y22	Z22	X23	Y23	Z23	X24	Y24	Z24	X25	Y25	Z25	X26	Y26	Z26	X27	Y27	Z27	X28	Y28	Z28	X29	Y29	Z29	X30	Y30	Z30	X31	Y31	Z31	X32	Y32	Z32	X33	Y33	Z33	X34	Y34	Z34	X35	Y35	Z35	X36	Y36	Z36	X37	Y37	Z37	X38	Y38	Z38	X39	Y39	Z39	X40	Y40	Z40	X41	Y41	Z41	X42	Y42	Z42	X43	Y43	Z43	X44	Y44	Z44	X45	Y45	Z45	X46	Y46	Z46	X47	Y47	Z47	X48	Y48	Z48	X49	Y49	Z49	X50	Y50	Z50	
251	1.2550	453.400235	1309.190596	-128.014995	458.035185	1313.852117	-492.101201	480.528618	1356.220020	-315.047898	427.544010	1230.020678	-308.570375	572.451225	1066.849423	-97.745529	716.787908	888.680029	-112.964344	558.538895	1063.077183	-535.513496	707.136470	890.209520	-502.962424	3.159620	1110.682336	-329.214129	146.387016	1093.281092	-455.761284	122.063755	1110.121877	-173.987275	197.233635	1066.810223	-426.268725	176.841418	1088.095001	-196.081009	8.636885	1129.637860	-282.290770	22.164885	1130.813183	-366.189891	105.518448	1035.550227	-131.100154	102.021751	1001.227576	-487.878191	196.086161	1014.303841	-127.737593	283.601731	1005.931432	-137.222132	356.639895	966.634315	-114.871989	292.519611	1029.068334	-166.164133	478.049983	879.592079	-151.330201	472.862347	858.439532	-263.714968	455.772398	769.015977	-135.091430	438.889466	681.922089	-152.010546	387.952321	613.720184	-146.099037	456.978675	677.737004	-186.915951	331.614641	505.624407	-152.112205	345.078964	526.805707	-231.215462	542.892234	442.866789	-182.857157	431.616534	428.270199	-130.040673	463.415092	443.162008	-236.620800	209.391551	908.469455	-500.583542	278.954317	856.097519	-496.629911	304.195528	876.202371	-478.480779	311.308619	772.770829	-494.011570	366.133839	689.337073	-471.297730	365.757399	658.893799	-366.032564	316.800422	598.341139	-492.204001	285.682168	518.676615	-478.059388	216.525804	461.153319	-482.804171	302.829481	509.515940	-442.022958	145.098745	387.019852	-468.437699	162.811818	370.595704	-394.764018	68.187388	389.462775	-428.007971	259.870294	175.723288	-440.475653	168.935818	236.678882	-498.576529	-162.792905	858.785083	-313.703061	37.547506	86.419724	-514.306180	33.575676	82.632407	-114.854846	
252	1.2600	453.418361	1309.195673	-128.026523	458.029589	1313.804394	-492.123039	480.507939	1356.230950	-315.062844	427.580256	1230.013988	-308.576137	572.430441	1066.830428	-97.724858	716.798892	888.695730	-112.972392	558.539299	1063.087355	-535.514504	707.126450	890.212819	-502.957535	3.187900	1110.656608	-329.224442	146.406988	1093.281604	-455.748238	122.051476	1110.130345	-173.992076	197.230250	1066.800123	-426.243969	176.828783	1088.090586	-196.044428	8.614749	1129.625880	-282.300282	22.164456	1130.810468	-366.202691	105.724170	1035.687804	-130.324584	101.999664	1001.221245	-487.886746	196.088919	1014.295041	-127.749388	283.630728	1005.909452	-137.217988	356.603424	966.639787	-114.860506	292.519767	1029.047240	-166.151156	478.037107	879.562956	-151.329428	472.863243	858.423283	-263.724817	455.764727	768.998713	-135.092893	438.935985	681.936208	-152.005921	387.945537	613.690788	-146.100801	456.983113	677.714212	-186.886167	331.613813	505.618376	-152.113563	345.084857	526.802758	-231.224675	542.896919	442.863752	-182.860898	431.602490	428.253429	-130.036354	463.421346	443.146846	-236.606616	209.378605	908.455178	-500.601571	278.934760	856.101031	-496.652944	304.186680	876.196145	-478.490269	311.294424	772.754018	-494.014517	366.314447	689.308707	-471.441550	365.754621	658.894860	-366.018761	316.801193	598.347130	-492.199182	285.686542	518.685278	-478.048173	216.524934	461.168159	-482.790909	302.824734	509.524173	-442.017305	145.094630	387.030216	-468.434521	162.780286	370.617008	-394.751573	68.180587	389.481720	-427.997464	259.872326	175.750487	-440.479300	168.926630	236.691714	-498.556981	-162.771264	858.898789	-313.324381	37.523335	86.396026	-514.306628	33.586872	82.619511	-114.849896	
253	1.2650	453.455337	1309.198077	-128.049479	458.021764	1313.776685	-492.163713	480.488635	1356.243199	-315.068955	427.639118	1230.003368	-308.591528	572.411748	1066.816590	-97.717119	716.783047	888.700157	-112.951333	558.540318	1063.073776	-535.516392	707.134142	890.208194	-502.944142	3.206897	1110.643511	-329.243983	146.401403	1093.256510	-455.733692	122.032517	1110.122518	-173.981653	197.219115	1066.791171	-426.242150	176.828773	1088.090584	-196.044543	8.594530	1129.620627	-282.313757	22.173361	1130.797286	-366.222746	105.710752	1035.715910	-130.330423	102.001321	1001.205098	-487.890210	196.099723	1014.291668	-127.759022	283.622669	1005.894684	-137.215224	356.609002	966.613119	-114.865151	292.537667	1029.036534	-166.157299	478.031165	879.555990	-151.343575	472.839706	858.408538	-263.702573	455.739291	768.972707	-135.098059	438.883504	681.908834	-152.018624	387.939296	613.676338	-146.111705	456.986921	677.701141	-186.872279	331.612806	505.578253	-152.108685	345.073498	526.773002	-231.210727	542.900832	442.848705	-182.856877	431.604930	428.238132	-130.020569	463.423802	443.142780	-236.608886	209.361182	908.451247	-500.607127	278.932210	856.083838	-496.636922	304.170074	876.186688	-478.491300	311.289426	772.747953	-494.025362	366.211807	689.251839	-471.313716	365.754787	658.894792	-366.018792	316.786758	598.396383	-492.212169	285.704520	518.687981	-478.050229	216.522679	461.167696	-482.783710	302.817596	509.533098	-441.994706	145.096476	387.035036	-468.430824	162.779659	370.617011	-394.753613	68.177214	389.489372	-428.001360	259.870957	175.756382	-440.472576	168.928091	236.711530	-498.576853	-162.766197	859.683418	-310.706023	37.538795	86.413940	-514.318004	33.969715	82.452948	-114.738874	
254	1.2700	453.481914	1309.199136	-128.063363	458.027640	1313.746574	-492.177906	480.468631	1356.264971	-315.091676	427.638992	1230.003692	-308.591541	572.360786	1066.771507	-97.644424	716.770317	888.713649	-112.933690	558.540017	1063.059913	-535.523691	707.134014	890.192204	-502.938225	3.215455	1110.635883	-329.248221	146.414071	1093.265085	-455.699753	122.033499	1110.125645	-173.992246	197.233223	1066.781737	-426.222143	176.812112	1088.106209	-196.026482	8.595113	1129.642598	-282.314899	22.156411	1130.811904	-366.221055	105.694728	1035.717603	-130.307421	101.989725	1001.196927	-487.899244	196.071328	1014.290356	-127.741238	283.609903	1005.902874	-137.195041	356.623312	966.593492	-114.883074	292.527472	1029.034212	-166.130326	478.019639	879.538324	-151.343328	472.837270	858.385587	-263.723874	455.724795	768.963483	-135.103621	438.898508	681.915192	-152.000725	387.946296	613.662324	-146.102552	456.974608	677.684614	-186.866236	331.608553	505.573608	-152.077958	345.076352	526.749602	-231.215388	542.904332	442.847876	-182.854402	431.613340	428.226894	-130.018289	463.428306	443.133326	-236.623765	209.343585	908.440131	-500.610887	278.915111	856.090100	-496.648780	304.151687	876.192990	-478.488558	311.284931	772.757469	-494.023389	366.138228	689.361639	-471.280215	365.741607	658.914872	-365.993110	316.814251	598.435509	-492.203031	285.713039	518.713506	-478.058323	216.539022	461.211645	-482.782933	302.832433	509.549682	-441.997858	145.112887	387.051118	-468.432437	162.835611	370.605743	-394.771203	68.199675	389.517170	-428.001411	259.847968	175.738254	-440.465261	168.923339	236.727551	-498.571109	-162.802002	859.800155	-310.451647	37.546706	86.413058	-514.330058	33.944536	82.371416	-114.699906	
